<?xml version="1.0" encoding="utf-8"?>
<!-- Generator: Adobe Illustrator 28.4.1, SVG Export Plug-In . SVG Version: 6.00 Build 0)  -->
<svg version="1.1" id="Camada_1" xmlns="http://www.w3.org/2000/svg" xmlns:xlink="http://www.w3.org/1999/xlink" x="0px" y="0px"
	 viewBox="0 0 595.28 841.89" style="enable-background:new 0 0 595.28 841.89;" xml:space="preserve">
<style type="text/css">
	.st0{fill:none;stroke:#D2DB58;stroke-width:2;stroke-miterlimit:10;}
</style>
<g>
	<path class="st0" d="M409.36,654.1c-35.71,25.92-66.28,43.51-91.7,52.78c-25.43,9.27-53.56,13.91-84.41,13.91
		c-57.14,0-103.13-14.92-137.98-44.78c-34.86-29.85-52.28-67.39-52.28-112.62c0-29.47,6.49-55.51,19.5-78.13
		c13-22.61,32.35-43.07,58.06-61.36c19.71-13.72,48.85-28.33,87.41-43.83c-14.86-29.21-23.86-48.78-27-58.69
		c-4-14.23-6-29.47-6-45.73c0-21.34,6.71-43,20.14-64.98c13.42-21.97,32.42-39.19,56.99-51.64c24.57-12.45,51.27-18.67,80.13-18.67
		c40.28,0,72.77,10.42,97.48,31.25c24.71,20.84,37.07,46.11,37.07,75.84c0,25.15-10.57,50.12-31.71,74.89
		c-21.14,24.77-62.71,51.01-124.69,78.7c37.42,60.21,73.41,109.63,107.98,148.25c20.85-22.61,40.71-49.16,59.56-79.65l67.7,30.87
		c-18.85,35.32-44.99,69.87-78.42,103.66c18.57,21.09,42.7,46.49,72.42,76.22l-58.28,41.54
		C452.21,699.83,428.21,677.22,409.36,654.1z M364.37,601.13c-53.42-62.25-94.99-118.01-124.69-167.3
		c-38.85,16.26-66.57,32.01-83.13,47.26c-23.14,21.34-34.71,46.11-34.71,74.32c0,28.96,11.07,53.42,33.21,73.36
		c22.13,19.95,49.2,29.92,81.2,29.92C279.37,658.67,322.08,639.49,364.37,601.13z M282.09,349.6
		c41.99-19.06,71.99-38.62,89.99-58.69c12.57-13.72,18.85-27.69,18.85-41.92c0-14.99-5.79-27.63-17.35-37.92
		c-11.57-10.29-25.64-15.43-42.21-15.43c-20,0-37.64,7.18-52.92,21.53c-15.29,14.36-22.92,31.44-22.92,51.26
		C255.53,292.57,264.38,319.62,282.09,349.6z"/>
</g>
<g>
</g>
<g>
</g>
<g>
</g>
<g>
</g>
<g>
</g>
<g>
</g>
</svg>
