<?xml version="1.0" encoding="UTF-8"?>
<svg id="Camada_2" data-name="Camada 2" xmlns="http://www.w3.org/2000/svg" xmlns:xlink="http://www.w3.org/1999/xlink" viewBox="0 0 165.22 1798.96">
  <defs>
    <style>
      .cls-1 {
        stroke-width: 0px;
      }

      .cls-1, .cls-2 {
        fill: none;
      }

      .cls-2 {
        stroke: #d5f95a;
        stroke-miterlimit: 10;
        stroke-width: 2px;
      }

      .cls-3 {
        clip-path: url(#clippath);
      }
    </style>
    <clipPath id="clippath">
      <polyline class="cls-1" points="165.22 130.87 165.22 1798.96 0 1798.96 0 0 165.22 0 165.22 130.87"/>
    </clipPath>
  </defs>
  <g id="Camada_1-2" data-name="Camada 1">
    <g class="cls-3">
      <g>
        <path class="cls-2" d="M153.78,176.69c-6.56-2.91-16.56-12.91-22.56-3.91,1,39-1,79-.73,118.27-7.94-4.54,0-.05,0,0-15.27-8.27-30.27-16.27-44.27-25.27,1-56,0-112,2-168,0-6,8-6,12-3,18,11,35,22,53.64,31.21"/>
        <path class="cls-2" d="M153.91,1514.43c-7.69-7.65-14.69-16.65-17.69-27.65,0-1-2-2-2-3-6-20-7-40-8-60-1-51,0-102,0-153-3-310,3-619,4-929-11-9-24-16-37-22-2-1-4,0-5,1s-2,3-2,5c-1,233-2,466-4,699,0,113,0,225,2,338,1,33-2,66,2,100,6,42,26,86,67.64,99.84"/>
      </g>
    </g>
  </g>
</svg>