<svg width="325" height="330" viewBox="0 0 325 330" fill="none" xmlns="http://www.w3.org/2000/svg">
<path d="M235.712 289.861C212.835 304.435 193.251 314.326 176.965 319.538C160.674 324.75 142.653 327.359 122.889 327.359C86.2824 327.359 56.8192 318.97 34.4928 302.181C12.16 285.397 1 264.289 1 238.858C1 222.287 5.15777 207.646 13.4925 194.927C21.8209 182.214 34.2173 170.71 50.6883 160.426C63.3153 152.712 81.9837 144.497 106.687 135.782C97.1669 119.358 91.4011 108.354 89.3895 102.782C86.827 94.7812 85.5457 86.2122 85.5457 77.0696C85.5457 65.0708 89.8444 52.892 98.4482 40.5333C107.046 28.1802 119.218 18.4979 134.958 11.4976C150.699 4.49733 167.804 1 186.293 1C212.098 1 232.913 6.85886 248.743 18.571C264.573 30.2887 272.492 44.4973 272.492 61.2136C272.492 75.3547 265.72 89.3946 252.177 103.322C238.634 117.25 212.002 132.004 172.295 147.573C196.268 181.427 219.325 209.215 241.472 230.929C254.829 218.217 267.552 203.288 279.628 186.145L323 203.502C310.924 223.361 294.177 242.788 272.761 261.787C284.658 273.645 300.116 287.927 319.156 304.643L281.819 328C263.164 315.574 247.789 302.861 235.712 289.861ZM206.89 260.078C172.667 225.076 146.035 193.724 127.008 166.01C102.119 175.152 84.3605 184.008 73.7514 192.583C58.9269 204.581 51.5147 218.509 51.5147 234.371C51.5147 250.654 58.6066 264.407 72.7905 275.619C86.9679 286.836 104.31 292.442 124.811 292.442C152.435 292.431 179.797 281.646 206.89 260.078ZM154.178 118.65C181.078 107.933 200.298 96.9347 211.829 85.6499C219.882 77.9356 223.905 70.0806 223.905 62.0795C223.905 53.6511 220.196 46.544 212.79 40.7582C205.378 34.9724 196.364 32.0823 185.749 32.0823C172.936 32.0823 161.635 36.1194 151.846 44.188C142.05 52.2623 137.162 61.8658 137.162 73.0101C137.162 86.5833 142.832 101.793 154.178 118.65Z" stroke="black" stroke-width="2" stroke-miterlimit="10"/>
</svg>
