<?xml version="1.0" encoding="UTF-8"?>
<svg id="Camada_2" data-name="Camada 2" xmlns="http://www.w3.org/2000/svg" viewBox="0 0 250.89 289.04">
  <defs>
    <style>
      .cls-1 {
        fill: none;
        opacity: .5;
        stroke: #010101;
        stroke-miterlimit: 10;
      }
    </style>
  </defs>
  <g id="Camada_1-2" data-name="Camada 1">
    <path class="cls-1" d="M250.23,160.21l-30.84-10.28-.15.4c-7.52,19.59-16.66,36.63-27.24,50.78l-54.5-67.07c12.38-5.97,23.24-11.84,32.42-17.56,14.12-8.79,24.85-18.38,31.92-28.51,7.08-10.16,10.68-22.08,10.68-35.44,0-10.96-2.79-20.47-8.28-28.25-5.49-7.76-13.3-13.74-23.19-17.75-9.87-4-21.36-6.03-34.15-6.03-15.71,0-30.04,2.97-42.57,8.84-12.55,5.88-22.5,14.34-29.57,25.15-7.08,10.82-10.67,23.88-10.67,38.83,0,10.16,2.1,20.04,6.24,29.37,3.42,7.74,8.24,15.75,14.35,23.89-14.73,7.15-27.65,14.43-38.57,21.74-15.31,10.25-26.86,21.33-34.31,32.92-7.48,11.61-11.27,24.81-11.27,39.23,0,13.37,3.8,25.23,11.28,35.25,7.48,10.02,18.17,17.8,31.78,23.14,13.59,5.33,29.79,8.03,48.14,8.03,22.63,0,44.21-4.72,64.16-14.04,10.96-5.12,21.4-11.71,31.22-19.73l28.53,35.19,26.23-25.82-28.87-35.53c14.65-18.12,27.12-40.4,37.08-66.3l.17-.44ZM112.6,40.27c8.28-7.22,19.41-10.88,33.09-10.88,10.5,0,18.74,2.58,24.49,7.68,5.74,5.09,8.64,11.37,8.64,18.66s-2.19,14.51-6.51,20.53c-4.34,6.05-12.03,12.4-22.86,18.87-7.82,4.67-18.1,9.99-30.66,15.87-6.03-7.67-10.56-14.68-13.48-20.87-3.42-7.23-5.15-14.09-5.15-20.4,0-12.33,4.19-22.24,12.44-29.45ZM143.69,242.45c-15.72,7.66-32.4,11.55-49.58,11.55s-30.97-3.8-40.3-11.3c-9.31-7.47-14.03-17.11-14.03-28.64,0-9.19,2.53-17.58,7.52-24.94,5.01-7.38,13.24-14.74,24.46-21.87,8.47-5.38,19.07-11.21,31.63-17.4l63.17,77.92c-7.27,5.89-14.91,10.79-22.87,14.67Z"/>
  </g>
</svg>