<?xml version="1.0" encoding="UTF-8"?>
<svg id="Camada_2" data-name="Camada 2" xmlns="http://www.w3.org/2000/svg" viewBox="0 0 228.12 75.43">
  <defs>
    <style>
      .cls-1 {
        fill: #232323;
        stroke-width: 0px;
      }
    </style>
  </defs>
  <g id="Camada_1-2" data-name="Camada 1">
    <g>
      <path class="cls-1" d="M50.33,8.05h2.75c2.79-3.59,7.12-5.76,11.74-5.76h7.09c.26,0,.42.28.29.5l-2.97,5.26h2.63l4.27-7.55c.13-.22-.04-.5-.29-.5h-11.01c-5.9,0-11.41,3.07-14.53,8.05h.04Z"/>
      <path class="cls-1" d="M68.17,10.27c-.12,0-.23.07-.29.17l-3.95,6.99c-7.97,14.11-15.79,28.33-23.99,42.24-1.62,2.75-4.21,4.58-6.24,1.14-1.85-3.13-3.7-6.26-5.54-9.4-.06-.1-.06-.23,0-.34l19.36-33.65,3.83-6.66c.13-.22-.03-.5-.29-.5h-1.87c-.12,0-.23.07-.29.17l-4.02,6.99-8.04,13.97c-.13.23-.46.22-.58,0l-8.42-14.83c-3.05-5.3-8.74-8.59-14.85-8.59H.34c-.26,0-.42.28-.29.51l11.47,19.39,12.62,21.24.97,1.64.65,1.08.4.68c1.85,3.11,3.77,6.25,5.64,9.41,2.58,4.38,7.1,3.86,10.05-1.14,8.44-14.34,16.52-28.87,24.71-43.37l3.77-6.66c.13-.22-.04-.5-.29-.5h-1.86ZM20.93,39.32h0s-2.65-4.43-2.65-4.43v-.03s-3.36-5.72-3.36-5.72L4.06,10.77c-.13-.22.03-.51.29-.51h8.63c5.3,0,10.23,2.85,12.87,7.44l9.28,16.33c.06.1.06.23,0,.33l-8.12,14.12c-.13.22-.45.22-.58,0l-5.49-9.18Z"/>
      <path class="cls-1" d="M134.06,7.59h7.18c2.38,0,4.3,1.93,4.3,4.3v45.43h-7.18c-2.38,0-4.3-1.92-4.3-4.3V7.59Z"/>
      <path class="cls-1" d="M163.33,46.8l21.21-26.08c2.23-2.74,3.44-6.15,3.44-9.68v-3.45h-38.11v10.45h23.91l-21.27,26.08c-2.23,2.74-3.45,6.17-3.45,9.7v3.51h39.66v-10.52h-25.38Z"/>
      <path class="cls-1" d="M216.69,57.32h-20.87c-3.57,0-2.93-3.94-2.93-3.94V10.52c0-1.62,1.31-2.93,2.93-2.93h31.64v5.69c0,2.46-2,4.46-4.46,4.46h-19.01v9.34h20.53v10.01h-20.53v9.93h19.67c2.46,0,4.46,2,4.46,4.46v5.84h-11.43Z"/>
      <path class="cls-1" d="M123.05,7.59c-2.99,0-5.65,1.9-6.61,4.73l-10.67,31.39-4-11.61-6.81-19.8c-.97-2.82-3.62-4.71-6.6-4.71h-8.04l16.02,42.14c1.22,4.56,4.02,6.41,6.36,7.13.99.33,2.05.49,3.14.45.37,0,.59-.03.59-.03h0c.27-.02.53-.06.8-.11,3.21-.59,5.83-2.93,6.99-5.98l16.64-43.6h-7.8Z"/>
      <path class="cls-1" d="M168.89,73.33l.95-.98c1.12,1.1,2.52,1.65,4.19,1.65.94,0,1.68-.18,2.2-.54.53-.36.79-.87.79-1.52,0-.71-.27-1.24-.81-1.6-.54-.36-1.4-.68-2.57-.95-1.03-.24-1.85-.51-2.45-.81-.61-.3-1.06-.68-1.36-1.14-.3-.47-.45-1.07-.45-1.8,0-.63.19-1.21.57-1.72.38-.52.91-.92,1.58-1.22.68-.3,1.45-.45,2.33-.45,1.7,0,3.15.62,4.35,1.87l-.97.95c-.48-.46-1.01-.8-1.59-1.04-.59-.24-1.18-.36-1.79-.36-.93,0-1.65.18-2.16.53-.52.35-.77.85-.77,1.48,0,.47.12.84.38,1.12.25.28.61.5,1.06.66s1.12.35,2,.55c1.48.35,2.56.84,3.23,1.45.67.61,1,1.41,1,2.4,0,1.08-.4,1.96-1.21,2.61-.81.66-1.94.99-3.39.99-2.07,0-3.77-.7-5.1-2.1"/>
      <polygon class="cls-1" points="183.49 63.9 179.05 63.9 179.05 62.42 189.52 62.42 189.52 63.9 185.08 63.9 185.08 75.22 183.49 75.22 183.49 63.9"/>
      <path class="cls-1" d="M191.96,73.79c-.93-1.09-1.39-2.63-1.39-4.61v-6.76h1.58v6.76c0,1.58.32,2.77.96,3.58.64.81,1.53,1.21,2.68,1.21s2.04-.4,2.68-1.2.96-1.99.96-3.57v-6.78h1.58v6.74c0,1.3-.21,2.42-.64,3.36-.43.94-1.03,1.66-1.82,2.16s-1.71.75-2.76.75c-1.62,0-2.9-.55-3.82-1.64"/>
      <path class="cls-1" d="M205.77,62.42c1.33,0,2.49.26,3.48.79.99.52,1.75,1.26,2.28,2.22.53.96.79,2.08.79,3.35s-.27,2.4-.8,3.37c-.53.97-1.29,1.72-2.28,2.26-.98.54-2.13.8-3.45.8h-3.86v-12.8h3.85ZM209.42,72.44c.86-.88,1.29-2.1,1.29-3.65s-.43-2.73-1.29-3.61c-.86-.88-2.06-1.32-3.62-1.32h-2.3v9.9h2.3c1.54,0,2.75-.44,3.61-1.33"/>
      <rect class="cls-1" x="213.34" y="62.42" width="1.58" height="12.8"/>
      <path class="cls-1" d="M218.92,74.57c-.92-.56-1.64-1.34-2.16-2.35-.52-1-.78-2.14-.78-3.42s.26-2.35.79-3.35c.53-1,1.25-1.78,2.17-2.36.92-.57,1.95-.86,3.1-.86s2.18.28,3.11.84c.93.56,1.65,1.34,2.18,2.34.53,1,.79,2.13.79,3.39s-.26,2.38-.79,3.39c-.53,1.01-1.26,1.8-2.18,2.37-.93.57-1.96.85-3.11.85s-2.2-.28-3.12-.84M224.36,73.3c.68-.44,1.21-1.04,1.59-1.83s.57-1.67.57-2.67-.19-1.86-.57-2.64c-.38-.78-.91-1.38-1.59-1.82-.68-.44-1.45-.65-2.31-.65s-1.65.22-2.34.66c-.68.44-1.21,1.05-1.58,1.83-.37.77-.56,1.65-.56,2.62s.19,1.89.56,2.67c.37.78.9,1.39,1.57,1.83.68.44,1.45.65,2.33.65s1.64-.22,2.32-.65"/>
    </g>
  </g>
</svg>