<?xml version="1.0" encoding="UTF-8"?>
<svg id="Camada_2" data-name="Camada 2" xmlns="http://www.w3.org/2000/svg" viewBox="0 0 232.88 31.95">
  <defs>
    <style>
      .cls-1 {
        fill: none;
        stroke: #d8fc5a;
        stroke-miterlimit: 10;
        stroke-width: .25px;
      }
    </style>
  </defs>
  <g id="Camada_1-2" data-name="Camada 1">
    <g>
      <path class="cls-1" d="M153.02,28.55h8.48c12.95-18.57,37.71-18.5,58.1-17.65.79,0,1.29.85.9,1.53l-9.18,16.11h8.12l13.17-23.13c.39-.69-.11-1.54-.9-1.54-27.61-.55-62.99-3.45-78.82,24.66h.13Z"/>
      <path class="cls-1" d="M17.56,31.76c2.75.02,5.5.05,8.24.06L12.24,9.05c-.41-.69.09-1.55.89-1.55,24.14-.88,53.57-1.85,66.48,23.05,2.71-.04,5.42-.04,8.13,0C71.19-4.76,33.03.28.75.49-3.82-.36,18.25,31.28,17.56,31.76Z"/>
    </g>
  </g>
</svg>