<?xml version="1.0" encoding="UTF-8"?>
<svg id="Camada_2" data-name="Camada 2" xmlns="http://www.w3.org/2000/svg" viewBox="0 0 628.89 536.12">
  <defs>
    <style>
      .cls-1 {
        fill: none;
        stroke: #d0da56;
        stroke-miterlimit: 10;
      }
    </style>
  </defs>
  <g id="Camada_1-2" data-name="Camada 1">
    <path class="cls-1" d="M415.39,66.87h22.66c22.97-29.63,58.72-47.5,96.77-47.5h58.45c2.12,0,3.45,2.29,2.41,4.13l-24.51,43.36h21.68l35.18-62.24c1.04-1.85-.29-4.13-2.41-4.13h-90.8c-48.66,0-94.07,25.31-119.76,66.37h.34Z"/>
    <path class="cls-1" d="M562.46,85.14c-1,0-1.92.54-2.41,1.41l-32.58,57.63c-65.73,116.29-130.19,233.53-197.76,348.26-13.37,22.7-34.73,37.72-51.4,9.41-15.22-25.84-30.48-51.63-45.64-77.48-.5-.86-.51-1.92-.01-2.79l159.58-277.4,31.58-54.89c1.06-1.85-.27-4.15-2.4-4.15h-15.39c-.99,0-1.91.53-2.4,1.39l-33.17,57.65-66.27,115.2c-1.07,1.86-3.75,1.85-4.81-.01l-69.45-122.29c-25.13-43.68-72.04-70.81-122.43-70.81H3.27c-2.14,0-3.48,2.33-2.38,4.18l94.52,159.89,104.07,175.1,8,13.48,5.34,8.93,3.31,5.65c15.22,25.65,31.09,51.5,46.47,77.6,21.25,36.08,58.51,31.85,82.81-9.41,69.61-118.19,136.17-237.96,203.74-357.51l31.04-54.91c1.04-1.85-.29-4.13-2.41-4.13h-15.32ZM173.08,324.63h0s-21.86-36.56-21.86-36.56l.13-.22-27.86-47.13h0S33.98,89.32,33.98,89.32c-1.09-1.85.24-4.18,2.38-4.18h71.13c43.66,0,84.3,23.51,106.07,61.35l76.54,134.64c.48.85.48,1.9,0,2.75l-66.96,116.4c-1.05,1.83-3.69,1.86-4.78.04l-45.27-75.69Z"/>
  </g>
</svg>