<?xml version="1.0" encoding="UTF-8"?>
<svg id="Camada_2" data-name="Camada 2" xmlns="http://www.w3.org/2000/svg" viewBox="0 0 61.64 509.97">
  <defs>
    <style>
      .cls-1 {
        fill: none;
        stroke: #d8fc5a;
        stroke-miterlimit: 10;
      }
    </style>
  </defs>
  <g id="Camada_1-2" data-name="Camada 1">
    <g>
      <path class="cls-1" d="M3.95.78l38.95,21.01c1.92,6.24,2.26,13.01,2.61,19.52l-25.09-13.54c-1.58-.85-3.48.31-3.45,2.1l.83,42.04L1.69,63.22.5,2.89C.47,1.1,2.37-.07,3.95.78Z"/>
      <path class="cls-1" d="M60.25,488.78c-.62.32-1.24.63-1.86.94-27.75,14.09-38.6-4.84-38.99-26.28-2-108.36-.15-217.35.16-326.15l.16-53.92c0-.81-.52-1.55-1.36-1.93l-12.97-5.81c-1.8-.8-4.02.34-4.03,2.07l-.15,51.37c-.32,111.83-1.61,223.45.45,335.08.68,36.69,26.89,54.06,59.47,40.97-.43-5.44-.55-10.9-.86-16.34Z"/>
    </g>
  </g>
</svg>