<?xml version="1.0" encoding="UTF-8"?>
<svg id="Camada_2" data-name="Camada 2" xmlns="http://www.w3.org/2000/svg" viewBox="0 0 236.04 57.39">
  <defs>
    <style>
      .cls-1 {
        fill: none;
        stroke: #d8fc5a;
        stroke-miterlimit: 10;
      }
    </style>
  </defs>
  <g id="Camada_1-2" data-name="Camada 1">
    <g>
      <path class="cls-1" d="M155.81,25.16h8.48c8.6-11.01,21.98-17.65,36.22-17.65h21.88c.79,0,1.29.85.9,1.54l-9.18,16.11h8.12l13.17-23.13c.39-.69-.11-1.54-.9-1.54h-33.99c-18.22,0-35.22,9.4-44.83,24.66h.13Z"/>
      <path class="cls-1" d="M145.56,56.61l1.58-2.73,11.82-20.39c.4-.69-.1-1.54-.9-1.54h-5.76c-.37,0-.71.2-.9.52l-12.42,21.42h0l-1.73,2.99c2.77-.03,5.54-.13,8.31-.27Z"/>
      <path class="cls-1" d="M206.34,53.09l11.16-19.6c.39-.69-.11-1.54-.9-1.54h-5.73c-.37,0-.72.2-.9.52l-11.76,20.65c2.71-.03,5.42-.04,8.14-.04Z"/>
      <path class="cls-1" d="M18.35,56.21c2.75.02,5.5.05,8.24.06l-13.56-22.77c-.41-.69.09-1.55.89-1.55h26.63c16.34,0,31.56,8.73,39.71,22.79l.15.26c1.28-.02,2.55-.03,3.83-.03,1.43,0,2.87.01,4.3.03l-2.15-3.76c-9.41-16.23-26.97-26.31-45.83-26.31H1.54c-.8,0-1.3.87-.89,1.55l17.71,29.73Z"/>
    </g>
  </g>
</svg>